#N canvas 245 23 1011 809 10;
#X obj 22 85 comport 1 115200;
#X msg 40 58 close;
#X msg 22 21 devicename /dev/serial/by-id/usb-Teensyduino_USB_Serial_994680-if00
;
#X floatatom 22 130 5 0 0 0 - - -;
#X obj 22 163 moses 232;
#X obj 114 180 moses 255;
#X floatatom 114 203 5 0 0 0 - - -;
#X obj 115 337 s scene;
#X obj 22 220 s goopdata;
#X text 14 236 goop no. + vel;
#X obj 930 25 loadbang;
#X msg 930 58 \; pd dsp 1;
#X text 862 91 turns DSP on by default;
#X text 93 162 interpret value as goop data or scene change;
#X text 121 228 scene no. (max 10 scenes \, any scene numbers over
10 will wrap around);
#X obj 114 268 - 232;
#X obj 114 293 mod 10;
#X floatatom 114 317 5 0 0 0 - - -;
#X msg 186 316 0;
#N canvas 420 23 715 601 init_tables 0;
#X obj 12 0 table s0g0l;
#X obj 91 0 table s0g0r;
#X obj 12 0 table s0g1l;
#X obj 91 0 table s0g1r;
#X obj 12 0 table s0g2l;
#X obj 91 0 table s0g2r;
#X obj 12 0 table s0g3l;
#X obj 91 0 table s0g3r;
#X obj 12 0 table s0g4l;
#X obj 91 0 table s0g4r;
#X obj 12 0 table s0g5l;
#X obj 91 0 table s0g5r;
#X obj 12 0 table s0g6l;
#X obj 91 0 table s0g6r;
#X obj 12 0 table s0g7l;
#X obj 91 0 table s0g7r;
#X obj 12 0 table s0g8l;
#X obj 91 0 table s0g8r;
#X obj 12 0 table s0g9l;
#X obj 91 0 table s0g9r;
#X obj 12 0 table s0g10l;
#X obj 91 0 table s0g10r;
#X obj 12 0 table s0g11l;
#X obj 91 0 table s0g11r;
#X obj 12 0 table s0g12l;
#X obj 91 0 table s0g12r;
#X obj 12 0 table s0g13l;
#X obj 91 0 table s0g13r;
#X obj 12 0 table s0g14l;
#X obj 91 0 table s0g14r;
#X obj 12 0 table s0g15l;
#X obj 91 0 table s0g15r;
#X obj 12 0 table s0g16l;
#X obj 91 0 table s0g16r;
#X obj 12 0 table s0g17l;
#X obj 91 0 table s0g17r;
#X obj 12 0 table s0g18l;
#X obj 91 0 table s0g18r;
#X obj 12 0 table s0g19l;
#X obj 91 0 table s0g19r;
#X obj 12 0 table s0g20l;
#X obj 91 0 table s0g20r;
#X obj 12 0 table s0g21l;
#X obj 91 0 table s0g21r;
#X obj 12 0 table s0g22l;
#X obj 91 0 table s0g22r;
#X obj 12 0 table s0g23l;
#X obj 91 0 table s0g23r;
#X obj 12 0 table s0g24l;
#X obj 91 0 table s0g24r;
#X obj 12 0 table s0g25l;
#X obj 91 0 table s0g25r;
#X obj 12 0 table s0g26l;
#X obj 91 0 table s0g26r;
#X obj 12 0 table s0g27l;
#X obj 91 0 table s0g27r;
#X obj 12 0 table s0g28l;
#X obj 91 0 table s0g28r;
#X obj 12 0 table s0g29l;
#X obj 91 0 table s0g29r;
#X obj 12 0 table s1g0l;
#X obj 91 0 table s1g0r;
#X obj 12 1 table s1g1l;
#X obj 91 1 table s1g1r;
#X obj 12 2 table s1g2l;
#X obj 91 2 table s1g2r;
#X obj 12 3 table s1g3l;
#X obj 91 3 table s1g3r;
#X obj 12 4 table s1g4l;
#X obj 91 4 table s1g4r;
#X obj 12 5 table s1g5l;
#X obj 91 5 table s1g5r;
#X obj 12 6 table s1g6l;
#X obj 91 6 table s1g6r;
#X obj 12 7 table s1g7l;
#X obj 91 7 table s1g7r;
#X obj 12 8 table s1g8l;
#X obj 91 8 table s1g8r;
#X obj 12 9 table s1g9l;
#X obj 91 9 table s1g9r;
#X obj 12 10 table s1g10l;
#X obj 91 10 table s1g10r;
#X obj 12 11 table s1g11l;
#X obj 91 11 table s1g11r;
#X obj 12 12 table s1g12l;
#X obj 91 12 table s1g12r;
#X obj 12 13 table s1g13l;
#X obj 91 13 table s1g13r;
#X obj 12 14 table s1g14l;
#X obj 91 14 table s1g14r;
#X obj 12 15 table s1g15l;
#X obj 91 15 table s1g15r;
#X obj 12 16 table s1g16l;
#X obj 91 16 table s1g16r;
#X obj 12 17 table s1g17l;
#X obj 91 17 table s1g17r;
#X obj 12 18 table s1g18l;
#X obj 91 18 table s1g18r;
#X obj 12 19 table s1g19l;
#X obj 91 19 table s1g19r;
#X obj 12 20 table s1g20l;
#X obj 91 20 table s1g20r;
#X obj 12 21 table s1g21l;
#X obj 91 21 table s1g21r;
#X obj 12 22 table s1g22l;
#X obj 91 22 table s1g22r;
#X obj 12 23 table s1g23l;
#X obj 91 23 table s1g23r;
#X obj 12 24 table s1g24l;
#X obj 91 24 table s1g24r;
#X obj 12 25 table s1g25l;
#X obj 91 25 table s1g25r;
#X obj 12 26 table s1g26l;
#X obj 91 26 table s1g26r;
#X obj 12 27 table s1g27l;
#X obj 91 27 table s1g27r;
#X obj 12 28 table s1g28l;
#X obj 91 28 table s1g28r;
#X obj 12 29 table s1g29l;
#X obj 91 29 table s1g29r;
#X obj 12 0 table s2g0l;
#X obj 91 0 table s2g0r;
#X obj 12 2 table s2g1l;
#X obj 91 2 table s2g1r;
#X obj 12 4 table s2g2l;
#X obj 91 4 table s2g2r;
#X obj 12 6 table s2g3l;
#X obj 91 6 table s2g3r;
#X obj 12 8 table s2g4l;
#X obj 91 8 table s2g4r;
#X obj 12 10 table s2g5l;
#X obj 91 10 table s2g5r;
#X obj 12 12 table s2g6l;
#X obj 91 12 table s2g6r;
#X obj 12 14 table s2g7l;
#X obj 91 14 table s2g7r;
#X obj 12 16 table s2g8l;
#X obj 91 16 table s2g8r;
#X obj 12 18 table s2g9l;
#X obj 91 18 table s2g9r;
#X obj 12 20 table s2g10l;
#X obj 91 20 table s2g10r;
#X obj 12 22 table s2g11l;
#X obj 91 22 table s2g11r;
#X obj 12 24 table s2g12l;
#X obj 91 24 table s2g12r;
#X obj 12 26 table s2g13l;
#X obj 91 26 table s2g13r;
#X obj 12 28 table s2g14l;
#X obj 91 28 table s2g14r;
#X obj 12 30 table s2g15l;
#X obj 91 30 table s2g15r;
#X obj 12 32 table s2g16l;
#X obj 91 32 table s2g16r;
#X obj 12 34 table s2g17l;
#X obj 91 34 table s2g17r;
#X obj 12 36 table s2g18l;
#X obj 91 36 table s2g18r;
#X obj 12 38 table s2g19l;
#X obj 91 38 table s2g19r;
#X obj 12 40 table s2g20l;
#X obj 91 40 table s2g20r;
#X obj 12 42 table s2g21l;
#X obj 91 42 table s2g21r;
#X obj 12 44 table s2g22l;
#X obj 91 44 table s2g22r;
#X obj 12 46 table s2g23l;
#X obj 91 46 table s2g23r;
#X obj 12 48 table s2g24l;
#X obj 91 48 table s2g24r;
#X obj 12 50 table s2g25l;
#X obj 91 50 table s2g25r;
#X obj 12 52 table s2g26l;
#X obj 91 52 table s2g26r;
#X obj 12 54 table s2g27l;
#X obj 91 54 table s2g27r;
#X obj 12 56 table s2g28l;
#X obj 91 56 table s2g28r;
#X obj 12 58 table s2g29l;
#X obj 91 58 table s2g29r;
#X obj 12 0 table s3g0l;
#X obj 91 0 table s3g0r;
#X obj 12 3 table s3g1l;
#X obj 91 3 table s3g1r;
#X obj 12 6 table s3g2l;
#X obj 91 6 table s3g2r;
#X obj 12 9 table s3g3l;
#X obj 91 9 table s3g3r;
#X obj 12 12 table s3g4l;
#X obj 91 12 table s3g4r;
#X obj 12 15 table s3g5l;
#X obj 91 15 table s3g5r;
#X obj 12 18 table s3g6l;
#X obj 91 18 table s3g6r;
#X obj 12 21 table s3g7l;
#X obj 91 21 table s3g7r;
#X obj 12 24 table s3g8l;
#X obj 91 24 table s3g8r;
#X obj 12 27 table s3g9l;
#X obj 91 27 table s3g9r;
#X obj 12 30 table s3g10l;
#X obj 91 30 table s3g10r;
#X obj 12 33 table s3g11l;
#X obj 91 33 table s3g11r;
#X obj 12 36 table s3g12l;
#X obj 91 36 table s3g12r;
#X obj 12 39 table s3g13l;
#X obj 91 39 table s3g13r;
#X obj 12 42 table s3g14l;
#X obj 91 42 table s3g14r;
#X obj 12 45 table s3g15l;
#X obj 91 45 table s3g15r;
#X obj 12 48 table s3g16l;
#X obj 91 48 table s3g16r;
#X obj 12 51 table s3g17l;
#X obj 91 51 table s3g17r;
#X obj 12 54 table s3g18l;
#X obj 91 54 table s3g18r;
#X obj 12 57 table s3g19l;
#X obj 91 57 table s3g19r;
#X obj 12 60 table s3g20l;
#X obj 91 60 table s3g20r;
#X obj 12 63 table s3g21l;
#X obj 91 63 table s3g21r;
#X obj 12 66 table s3g22l;
#X obj 91 66 table s3g22r;
#X obj 12 69 table s3g23l;
#X obj 91 69 table s3g23r;
#X obj 12 72 table s3g24l;
#X obj 91 72 table s3g24r;
#X obj 12 75 table s3g25l;
#X obj 91 75 table s3g25r;
#X obj 12 78 table s3g26l;
#X obj 91 78 table s3g26r;
#X obj 12 81 table s3g27l;
#X obj 91 81 table s3g27r;
#X obj 12 84 table s3g28l;
#X obj 91 84 table s3g28r;
#X obj 12 87 table s3g29l;
#X obj 91 87 table s3g29r;
#X obj 12 0 table s4g0l;
#X obj 91 0 table s4g0r;
#X obj 12 4 table s4g1l;
#X obj 91 4 table s4g1r;
#X obj 12 8 table s4g2l;
#X obj 91 8 table s4g2r;
#X obj 12 12 table s4g3l;
#X obj 91 12 table s4g3r;
#X obj 12 16 table s4g4l;
#X obj 91 16 table s4g4r;
#X obj 12 20 table s4g5l;
#X obj 91 20 table s4g5r;
#X obj 12 24 table s4g6l;
#X obj 91 24 table s4g6r;
#X obj 12 28 table s4g7l;
#X obj 91 28 table s4g7r;
#X obj 12 32 table s4g8l;
#X obj 91 32 table s4g8r;
#X obj 12 36 table s4g9l;
#X obj 91 36 table s4g9r;
#X obj 12 40 table s4g10l;
#X obj 91 40 table s4g10r;
#X obj 12 44 table s4g11l;
#X obj 91 44 table s4g11r;
#X obj 12 48 table s4g12l;
#X obj 91 48 table s4g12r;
#X obj 12 52 table s4g13l;
#X obj 91 52 table s4g13r;
#X obj 12 56 table s4g14l;
#X obj 91 56 table s4g14r;
#X obj 12 60 table s4g15l;
#X obj 91 60 table s4g15r;
#X obj 12 64 table s4g16l;
#X obj 91 64 table s4g16r;
#X obj 12 68 table s4g17l;
#X obj 91 68 table s4g17r;
#X obj 12 72 table s4g18l;
#X obj 91 72 table s4g18r;
#X obj 12 76 table s4g19l;
#X obj 91 76 table s4g19r;
#X obj 12 80 table s4g20l;
#X obj 91 80 table s4g20r;
#X obj 12 84 table s4g21l;
#X obj 91 84 table s4g21r;
#X obj 12 88 table s4g22l;
#X obj 91 88 table s4g22r;
#X obj 12 92 table s4g23l;
#X obj 91 92 table s4g23r;
#X obj 12 96 table s4g24l;
#X obj 91 96 table s4g24r;
#X obj 12 100 table s4g25l;
#X obj 91 100 table s4g25r;
#X obj 12 104 table s4g26l;
#X obj 91 104 table s4g26r;
#X obj 12 108 table s4g27l;
#X obj 91 108 table s4g27r;
#X obj 12 112 table s4g28l;
#X obj 91 112 table s4g28r;
#X obj 12 116 table s4g29l;
#X obj 91 116 table s4g29r;
#X obj 12 0 table s5g0l;
#X obj 91 0 table s5g0r;
#X obj 12 5 table s5g1l;
#X obj 91 5 table s5g1r;
#X obj 12 10 table s5g2l;
#X obj 91 10 table s5g2r;
#X obj 12 15 table s5g3l;
#X obj 91 15 table s5g3r;
#X obj 12 20 table s5g4l;
#X obj 91 20 table s5g4r;
#X obj 12 25 table s5g5l;
#X obj 91 25 table s5g5r;
#X obj 12 30 table s5g6l;
#X obj 91 30 table s5g6r;
#X obj 12 35 table s5g7l;
#X obj 91 35 table s5g7r;
#X obj 12 40 table s5g8l;
#X obj 91 40 table s5g8r;
#X obj 12 45 table s5g9l;
#X obj 91 45 table s5g9r;
#X obj 12 50 table s5g10l;
#X obj 91 50 table s5g10r;
#X obj 12 55 table s5g11l;
#X obj 91 55 table s5g11r;
#X obj 12 60 table s5g12l;
#X obj 91 60 table s5g12r;
#X obj 12 65 table s5g13l;
#X obj 91 65 table s5g13r;
#X obj 12 70 table s5g14l;
#X obj 91 70 table s5g14r;
#X obj 12 75 table s5g15l;
#X obj 91 75 table s5g15r;
#X obj 12 80 table s5g16l;
#X obj 91 80 table s5g16r;
#X obj 12 85 table s5g17l;
#X obj 91 85 table s5g17r;
#X obj 12 90 table s5g18l;
#X obj 91 90 table s5g18r;
#X obj 12 95 table s5g19l;
#X obj 91 95 table s5g19r;
#X obj 12 100 table s5g20l;
#X obj 91 100 table s5g20r;
#X obj 12 105 table s5g21l;
#X obj 91 105 table s5g21r;
#X obj 12 110 table s5g22l;
#X obj 91 110 table s5g22r;
#X obj 12 115 table s5g23l;
#X obj 91 115 table s5g23r;
#X obj 12 120 table s5g24l;
#X obj 91 120 table s5g24r;
#X obj 12 125 table s5g25l;
#X obj 91 125 table s5g25r;
#X obj 12 130 table s5g26l;
#X obj 91 130 table s5g26r;
#X obj 12 135 table s5g27l;
#X obj 91 135 table s5g27r;
#X obj 12 140 table s5g28l;
#X obj 91 140 table s5g28r;
#X obj 12 145 table s5g29l;
#X obj 91 145 table s5g29r;
#X obj 12 0 table s6g0l;
#X obj 91 0 table s6g0r;
#X obj 12 6 table s6g1l;
#X obj 91 6 table s6g1r;
#X obj 12 12 table s6g2l;
#X obj 91 12 table s6g2r;
#X obj 12 18 table s6g3l;
#X obj 91 18 table s6g3r;
#X obj 12 24 table s6g4l;
#X obj 91 24 table s6g4r;
#X obj 12 30 table s6g5l;
#X obj 91 30 table s6g5r;
#X obj 12 36 table s6g6l;
#X obj 91 36 table s6g6r;
#X obj 12 42 table s6g7l;
#X obj 91 42 table s6g7r;
#X obj 12 48 table s6g8l;
#X obj 91 48 table s6g8r;
#X obj 12 54 table s6g9l;
#X obj 91 54 table s6g9r;
#X obj 12 60 table s6g10l;
#X obj 91 60 table s6g10r;
#X obj 12 66 table s6g11l;
#X obj 91 66 table s6g11r;
#X obj 12 72 table s6g12l;
#X obj 91 72 table s6g12r;
#X obj 12 78 table s6g13l;
#X obj 91 78 table s6g13r;
#X obj 12 84 table s6g14l;
#X obj 91 84 table s6g14r;
#X obj 12 90 table s6g15l;
#X obj 91 90 table s6g15r;
#X obj 12 96 table s6g16l;
#X obj 91 96 table s6g16r;
#X obj 12 102 table s6g17l;
#X obj 91 102 table s6g17r;
#X obj 12 108 table s6g18l;
#X obj 91 108 table s6g18r;
#X obj 12 114 table s6g19l;
#X obj 91 114 table s6g19r;
#X obj 12 120 table s6g20l;
#X obj 91 120 table s6g20r;
#X obj 12 126 table s6g21l;
#X obj 91 126 table s6g21r;
#X obj 12 132 table s6g22l;
#X obj 91 132 table s6g22r;
#X obj 12 138 table s6g23l;
#X obj 91 138 table s6g23r;
#X obj 12 144 table s6g24l;
#X obj 91 144 table s6g24r;
#X obj 12 150 table s6g25l;
#X obj 91 150 table s6g25r;
#X obj 12 156 table s6g26l;
#X obj 91 156 table s6g26r;
#X obj 12 162 table s6g27l;
#X obj 91 162 table s6g27r;
#X obj 12 168 table s6g28l;
#X obj 91 168 table s6g28r;
#X obj 12 174 table s6g29l;
#X obj 91 174 table s6g29r;
#X obj 12 0 table s7g0l;
#X obj 91 0 table s7g0r;
#X obj 12 7 table s7g1l;
#X obj 91 7 table s7g1r;
#X obj 12 14 table s7g2l;
#X obj 91 14 table s7g2r;
#X obj 12 21 table s7g3l;
#X obj 91 21 table s7g3r;
#X obj 12 28 table s7g4l;
#X obj 91 28 table s7g4r;
#X obj 12 35 table s7g5l;
#X obj 91 35 table s7g5r;
#X obj 12 42 table s7g6l;
#X obj 91 42 table s7g6r;
#X obj 12 49 table s7g7l;
#X obj 91 49 table s7g7r;
#X obj 12 56 table s7g8l;
#X obj 91 56 table s7g8r;
#X obj 12 63 table s7g9l;
#X obj 91 63 table s7g9r;
#X obj 12 70 table s7g10l;
#X obj 91 70 table s7g10r;
#X obj 12 77 table s7g11l;
#X obj 91 77 table s7g11r;
#X obj 12 84 table s7g12l;
#X obj 91 84 table s7g12r;
#X obj 12 91 table s7g13l;
#X obj 91 91 table s7g13r;
#X obj 12 98 table s7g14l;
#X obj 91 98 table s7g14r;
#X obj 12 105 table s7g15l;
#X obj 91 105 table s7g15r;
#X obj 12 112 table s7g16l;
#X obj 91 112 table s7g16r;
#X obj 12 119 table s7g17l;
#X obj 91 119 table s7g17r;
#X obj 12 126 table s7g18l;
#X obj 91 126 table s7g18r;
#X obj 12 133 table s7g19l;
#X obj 91 133 table s7g19r;
#X obj 12 140 table s7g20l;
#X obj 91 140 table s7g20r;
#X obj 12 147 table s7g21l;
#X obj 91 147 table s7g21r;
#X obj 12 154 table s7g22l;
#X obj 91 154 table s7g22r;
#X obj 12 161 table s7g23l;
#X obj 91 161 table s7g23r;
#X obj 12 168 table s7g24l;
#X obj 91 168 table s7g24r;
#X obj 12 175 table s7g25l;
#X obj 91 175 table s7g25r;
#X obj 12 182 table s7g26l;
#X obj 91 182 table s7g26r;
#X obj 12 189 table s7g27l;
#X obj 91 189 table s7g27r;
#X obj 12 196 table s7g28l;
#X obj 91 196 table s7g28r;
#X obj 12 203 table s7g29l;
#X obj 91 203 table s7g29r;
#X obj 12 0 table s8g0l;
#X obj 91 0 table s8g0r;
#X obj 12 8 table s8g1l;
#X obj 91 8 table s8g1r;
#X obj 12 16 table s8g2l;
#X obj 91 16 table s8g2r;
#X obj 12 24 table s8g3l;
#X obj 91 24 table s8g3r;
#X obj 12 32 table s8g4l;
#X obj 91 32 table s8g4r;
#X obj 12 40 table s8g5l;
#X obj 91 40 table s8g5r;
#X obj 12 48 table s8g6l;
#X obj 91 48 table s8g6r;
#X obj 12 56 table s8g7l;
#X obj 91 56 table s8g7r;
#X obj 12 64 table s8g8l;
#X obj 91 64 table s8g8r;
#X obj 12 72 table s8g9l;
#X obj 91 72 table s8g9r;
#X obj 12 80 table s8g10l;
#X obj 91 80 table s8g10r;
#X obj 12 88 table s8g11l;
#X obj 91 88 table s8g11r;
#X obj 12 96 table s8g12l;
#X obj 91 96 table s8g12r;
#X obj 12 104 table s8g13l;
#X obj 91 104 table s8g13r;
#X obj 12 112 table s8g14l;
#X obj 91 112 table s8g14r;
#X obj 12 120 table s8g15l;
#X obj 91 120 table s8g15r;
#X obj 12 128 table s8g16l;
#X obj 91 128 table s8g16r;
#X obj 12 136 table s8g17l;
#X obj 91 136 table s8g17r;
#X obj 12 144 table s8g18l;
#X obj 91 144 table s8g18r;
#X obj 12 152 table s8g19l;
#X obj 91 152 table s8g19r;
#X obj 12 160 table s8g20l;
#X obj 91 160 table s8g20r;
#X obj 12 168 table s8g21l;
#X obj 91 168 table s8g21r;
#X obj 12 176 table s8g22l;
#X obj 91 176 table s8g22r;
#X obj 12 184 table s8g23l;
#X obj 91 184 table s8g23r;
#X obj 12 192 table s8g24l;
#X obj 91 192 table s8g24r;
#X obj 12 200 table s8g25l;
#X obj 91 200 table s8g25r;
#X obj 12 208 table s8g26l;
#X obj 91 208 table s8g26r;
#X obj 12 216 table s8g27l;
#X obj 91 216 table s8g27r;
#X obj 12 224 table s8g28l;
#X obj 91 224 table s8g28r;
#X obj 12 232 table s8g29l;
#X obj 91 232 table s8g29r;
#X obj 12 0 table s9g0l;
#X obj 91 0 table s9g0r;
#X obj 12 9 table s9g1l;
#X obj 91 9 table s9g1r;
#X obj 12 18 table s9g2l;
#X obj 91 18 table s9g2r;
#X obj 12 27 table s9g3l;
#X obj 91 27 table s9g3r;
#X obj 12 36 table s9g4l;
#X obj 91 36 table s9g4r;
#X obj 12 45 table s9g5l;
#X obj 91 45 table s9g5r;
#X obj 12 54 table s9g6l;
#X obj 91 54 table s9g6r;
#X obj 12 63 table s9g7l;
#X obj 91 63 table s9g7r;
#X obj 12 72 table s9g8l;
#X obj 91 72 table s9g8r;
#X obj 12 81 table s9g9l;
#X obj 91 81 table s9g9r;
#X obj 12 90 table s9g10l;
#X obj 91 90 table s9g10r;
#X obj 12 99 table s9g11l;
#X obj 91 99 table s9g11r;
#X obj 12 108 table s9g12l;
#X obj 91 108 table s9g12r;
#X obj 12 117 table s9g13l;
#X obj 91 117 table s9g13r;
#X obj 12 126 table s9g14l;
#X obj 91 126 table s9g14r;
#X obj 12 135 table s9g15l;
#X obj 91 135 table s9g15r;
#X obj 12 144 table s9g16l;
#X obj 91 144 table s9g16r;
#X obj 12 153 table s9g17l;
#X obj 91 153 table s9g17r;
#X obj 12 162 table s9g18l;
#X obj 91 162 table s9g18r;
#X obj 12 171 table s9g19l;
#X obj 91 171 table s9g19r;
#X obj 12 180 table s9g20l;
#X obj 91 180 table s9g20r;
#X obj 12 189 table s9g21l;
#X obj 91 189 table s9g21r;
#X obj 12 198 table s9g22l;
#X obj 91 198 table s9g22r;
#X obj 12 207 table s9g23l;
#X obj 91 207 table s9g23r;
#X obj 12 216 table s9g24l;
#X obj 91 216 table s9g24r;
#X obj 12 225 table s9g25l;
#X obj 91 225 table s9g25r;
#X obj 12 234 table s9g26l;
#X obj 91 234 table s9g26r;
#X obj 12 243 table s9g27l;
#X obj 91 243 table s9g27r;
#X obj 12 252 table s9g28l;
#X obj 91 252 table s9g28r;
#X obj 12 261 table s9g29l;
#X obj 91 261 table s9g29r;
#X restore 898 141 pd init_tables;
#X text 852 160 initialize sample tables;
#N canvas 615 30 981 758 loadsamples 1;
#X obj 27 12 loadbang;
#X obj 27 72 t f b;
#X obj 27 106 until;
#X msg 71 106 0;
#X obj 28 143 f;
#X obj 66 143 + 1;
#X floatatom 28 172 5 0 0 0 - - -;
#X msg 27 41 290;
#X obj 91 204 div 10;
#X obj 28 204 mod 10;
#X obj 28 240 pack f f;
#X obj 28 266 route 0 1 2 3 4 5 6 7 8 9;
#X obj 160 293 makefilename scene9/goop%d.wav;
#X obj 145 315 makefilename scene8/goop%d.wav;
#X obj 130 338 makefilename scene7/goop%d.wav;
#X obj 116 360 makefilename scene6/goop%d.wav;
#X obj 101 383 makefilename scene5/goop%d.wav;
#X obj 86 404 makefilename scene4/goop%d.wav;
#X obj 72 428 makefilename scene3/goop%d.wav;
#X obj 57 451 makefilename scene2/goop%d.wav;
#X obj 42 474 makefilename scene1/goop%d.wav;
#X obj 28 496 makefilename scene0/goop%d.wav;
#X obj 398 268 route 0 1 2 3 4 5 6 7 8 9;
#X symbolatom 319 534 10 0 0 0 - - -;
#X obj 530 295 makefilename s9g%d;
#X obj 515 317 makefilename s8g%d;
#X obj 500 340 makefilename s7g%d;
#X obj 486 361 makefilename s6g%d;
#X obj 398 498 makefilename s0g%d;
#X obj 412 476 makefilename s1g%d;
#X obj 427 453 makefilename s2g%d;
#X obj 442 430 makefilename s3g%d;
#X obj 471 385 makefilename s5g%d;
#X obj 456 406 makefilename s4g%d;
#X symbolatom -8 531 10 0 0 0 - - -;
#X obj 319 563 makefilename %sl;
#X obj 436 563 makefilename %sr;
#X obj 117 616 pack s s s;
#X msg 117 647 read -resize \$1 \$2 \$3;
#X obj 117 680 soundfiler;
#X connect 0 0 7 0;
#X connect 1 0 2 0;
#X connect 1 1 3 0;
#X connect 2 0 4 0;
#X connect 3 0 4 1;
#X connect 4 0 5 0;
#X connect 4 0 6 0;
#X connect 5 0 4 1;
#X connect 6 0 8 0;
#X connect 6 0 9 0;
#X connect 7 0 1 0;
#X connect 8 0 10 1;
#X connect 9 0 10 0;
#X connect 10 0 11 0;
#X connect 10 0 22 0;
#X connect 11 0 21 0;
#X connect 11 1 20 0;
#X connect 11 2 19 0;
#X connect 11 3 18 0;
#X connect 11 4 17 0;
#X connect 11 5 16 0;
#X connect 11 6 15 0;
#X connect 11 7 14 0;
#X connect 11 8 13 0;
#X connect 11 9 12 0;
#X connect 12 0 34 0;
#X connect 13 0 34 0;
#X connect 14 0 34 0;
#X connect 15 0 34 0;
#X connect 16 0 34 0;
#X connect 17 0 34 0;
#X connect 18 0 34 0;
#X connect 19 0 34 0;
#X connect 20 0 34 0;
#X connect 21 0 34 0;
#X connect 22 0 28 0;
#X connect 22 1 29 0;
#X connect 22 2 30 0;
#X connect 22 3 31 0;
#X connect 22 4 33 0;
#X connect 22 5 32 0;
#X connect 22 6 27 0;
#X connect 22 7 26 0;
#X connect 22 8 25 0;
#X connect 22 9 24 0;
#X connect 23 0 35 0;
#X connect 23 0 36 0;
#X connect 24 0 23 0;
#X connect 25 0 23 0;
#X connect 26 0 23 0;
#X connect 27 0 23 0;
#X connect 28 0 23 0;
#X connect 29 0 23 0;
#X connect 30 0 23 0;
#X connect 31 0 23 0;
#X connect 32 0 23 0;
#X connect 33 0 23 0;
#X connect 34 0 37 0;
#X connect 35 0 37 1;
#X connect 36 0 37 2;
#X connect 37 0 38 0;
#X connect 38 0 39 0;
#X restore 898 203 pd loadsamples;
#X text 816 221 load all goop samples to tables;
#N canvas 426 201 1114 549 goop 1;
#X obj 607 12 r scene;
#X floatatom 295 235 5 0 0 0 - - -;
#X obj 264 13 r goopdata;
#X obj 175 100 div 8;
#X obj 278 99 mod 8;
#X text 53 177 check if correct goop;
#X text 313 125 velocity;
#X floatatom 102 200 5 0 0 0 - - -;
#X obj 295 260 spigot;
#X floatatom 295 289 5 0 0 0 - - -;
#X obj 177 428 *~;
#X obj 294 428 *~;
#X obj 102 250 sel 1;
#X obj 102 277 bng 15 250 50 0 empty empty empty 17 7 0 10 -262144
-1 -1;
#X obj 58 13 inlet;
#X floatatom 58 47 5 0 0 0 - - -;
#X obj 102 159 ==;
#X obj 278 154 moses 3;
#X obj 317 180 - 2;
#X obj 22 340 tabplay~ s0g0l;
#X obj 135 340 tabplay~ s0g0r;
#X floatatom 175 127 5 0 0 0 - - -;
#X floatatom 278 126 5 0 0 0 - - -;
#X text 211 126 goop no.;
#X text 330 154 only use velocities of 3 or higher;
#X text 345 179 subtract to make velocities start at 1;
#X obj 295 209 / 20;
#X text 329 209 volume normalization;
#X text 83 320 play in stereo;
#X obj 607 44 pack f f;
#X obj 607 75 route 0 1 2 3 4 5 6 7 8 9;
#X symbolatom 528 341 10 0 0 0 - - -;
#X obj 739 102 makefilename s9g%d;
#X obj 724 124 makefilename s8g%d;
#X obj 709 147 makefilename s7g%d;
#X obj 695 168 makefilename s6g%d;
#X obj 607 305 makefilename s0g%d;
#X obj 621 283 makefilename s1g%d;
#X obj 636 260 makefilename s2g%d;
#X obj 651 237 makefilename s3g%d;
#X obj 680 192 makefilename s5g%d;
#X obj 665 213 makefilename s4g%d;
#X obj 482 371 makefilename %sl;
#X obj 600 371 makefilename %sr;
#X msg 482 400 set \$1;
#X msg 600 399 set \$1;
#X text -25 -16 unique goop number for each instance of goop subpatch
;
#X text 388 12 <- get teensy input ->;
#X obj 177 456 outlet~;
#X obj 293 457 outlet~;
#X connect 0 0 29 0;
#X connect 1 0 8 0;
#X connect 2 0 3 0;
#X connect 2 0 4 0;
#X connect 3 0 21 0;
#X connect 4 0 22 0;
#X connect 7 0 8 1;
#X connect 7 0 12 0;
#X connect 8 0 9 0;
#X connect 9 0 10 1;
#X connect 9 0 11 1;
#X connect 10 0 48 0;
#X connect 11 0 49 0;
#X connect 12 0 13 0;
#X connect 13 0 19 0;
#X connect 13 0 20 0;
#X connect 14 0 15 0;
#X connect 15 0 16 1;
#X connect 15 0 29 1;
#X connect 16 0 7 0;
#X connect 17 1 18 0;
#X connect 18 0 26 0;
#X connect 19 0 10 0;
#X connect 20 0 11 0;
#X connect 21 0 16 0;
#X connect 22 0 17 0;
#X connect 26 0 1 0;
#X connect 29 0 30 0;
#X connect 30 0 36 0;
#X connect 30 1 37 0;
#X connect 30 2 38 0;
#X connect 30 3 39 0;
#X connect 30 4 41 0;
#X connect 30 5 40 0;
#X connect 30 6 35 0;
#X connect 30 7 34 0;
#X connect 30 8 33 0;
#X connect 30 9 32 0;
#X connect 31 0 42 0;
#X connect 31 0 43 0;
#X connect 32 0 31 0;
#X connect 33 0 31 0;
#X connect 34 0 31 0;
#X connect 35 0 31 0;
#X connect 36 0 31 0;
#X connect 37 0 31 0;
#X connect 38 0 31 0;
#X connect 39 0 31 0;
#X connect 40 0 31 0;
#X connect 41 0 31 0;
#X connect 42 0 44 0;
#X connect 43 0 45 0;
#X connect 44 0 19 0;
#X connect 45 0 20 0;
#X restore 23 458 pd goop;
#X obj 23 400 loadbang;
#X msg 23 430 0;
#N canvas 426 201 1114 549 goop 1;
#X obj 607 12 r scene;
#X floatatom 295 235 5 0 0 0 - - -;
#X obj 264 13 r goopdata;
#X obj 175 100 div 8;
#X obj 278 99 mod 8;
#X text 53 177 check if correct goop;
#X text 313 125 velocity;
#X floatatom 102 200 5 0 0 0 - - -;
#X obj 295 260 spigot;
#X floatatom 295 289 5 0 0 0 - - -;
#X obj 177 428 *~;
#X obj 294 428 *~;
#X obj 102 250 sel 1;
#X obj 102 277 bng 15 250 50 0 empty empty empty 17 7 0 10 -262144
-1 -1;
#X obj 58 13 inlet;
#X floatatom 58 47 5 0 0 0 - - -;
#X obj 102 159 ==;
#X obj 278 154 moses 3;
#X obj 317 180 - 2;
#X obj 22 340 tabplay~ s0g0l;
#X obj 135 340 tabplay~ s0g0r;
#X floatatom 175 127 5 0 0 0 - - -;
#X floatatom 278 126 5 0 0 0 - - -;
#X text 211 126 goop no.;
#X text 330 154 only use velocities of 3 or higher;
#X text 345 179 subtract to make velocities start at 1;
#X obj 295 209 / 20;
#X text 329 209 volume normalization;
#X text 83 320 play in stereo;
#X obj 607 44 pack f f;
#X obj 607 75 route 0 1 2 3 4 5 6 7 8 9;
#X symbolatom 528 341 10 0 0 0 - - -;
#X obj 739 102 makefilename s9g%d;
#X obj 724 124 makefilename s8g%d;
#X obj 709 147 makefilename s7g%d;
#X obj 695 168 makefilename s6g%d;
#X obj 607 305 makefilename s0g%d;
#X obj 621 283 makefilename s1g%d;
#X obj 636 260 makefilename s2g%d;
#X obj 651 237 makefilename s3g%d;
#X obj 680 192 makefilename s5g%d;
#X obj 665 213 makefilename s4g%d;
#X obj 482 371 makefilename %sl;
#X obj 600 371 makefilename %sr;
#X msg 482 400 set \$1;
#X msg 600 399 set \$1;
#X text -25 -16 unique goop number for each instance of goop subpatch
;
#X text 388 12 <- get teensy input ->;
#X obj 177 456 outlet~;
#X obj 293 457 outlet~;
#X connect 0 0 29 0;
#X connect 1 0 8 0;
#X connect 2 0 3 0;
#X connect 2 0 4 0;
#X connect 3 0 21 0;
#X connect 4 0 22 0;
#X connect 7 0 8 1;
#X connect 7 0 12 0;
#X connect 8 0 9 0;
#X connect 9 0 10 1;
#X connect 9 0 11 1;
#X connect 10 0 48 0;
#X connect 11 0 49 0;
#X connect 12 0 13 0;
#X connect 13 0 19 0;
#X connect 13 0 20 0;
#X connect 14 0 15 0;
#X connect 15 0 16 1;
#X connect 15 0 29 1;
#X connect 16 0 7 0;
#X connect 17 1 18 0;
#X connect 18 0 26 0;
#X connect 19 0 10 0;
#X connect 20 0 11 0;
#X connect 21 0 16 0;
#X connect 22 0 17 0;
#X connect 26 0 1 0;
#X connect 29 0 30 0;
#X connect 30 0 36 0;
#X connect 30 1 37 0;
#X connect 30 2 38 0;
#X connect 30 3 39 0;
#X connect 30 4 41 0;
#X connect 30 5 40 0;
#X connect 30 6 35 0;
#X connect 30 7 34 0;
#X connect 30 8 33 0;
#X connect 30 9 32 0;
#X connect 31 0 42 0;
#X connect 31 0 43 0;
#X connect 32 0 31 0;
#X connect 33 0 31 0;
#X connect 34 0 31 0;
#X connect 35 0 31 0;
#X connect 36 0 31 0;
#X connect 37 0 31 0;
#X connect 38 0 31 0;
#X connect 39 0 31 0;
#X connect 40 0 31 0;
#X connect 41 0 31 0;
#X connect 42 0 44 0;
#X connect 43 0 45 0;
#X connect 44 0 19 0;
#X connect 45 0 20 0;
#X restore 85 458 pd goop;
#X obj 85 400 loadbang;
#N canvas 426 201 1114 549 goop 1;
#X obj 607 12 r scene;
#X floatatom 295 235 5 0 0 0 - - -;
#X obj 264 13 r goopdata;
#X obj 175 100 div 8;
#X obj 278 99 mod 8;
#X text 53 177 check if correct goop;
#X text 313 125 velocity;
#X floatatom 102 200 5 0 0 0 - - -;
#X obj 295 260 spigot;
#X floatatom 295 289 5 0 0 0 - - -;
#X obj 177 428 *~;
#X obj 294 428 *~;
#X obj 102 250 sel 1;
#X obj 102 277 bng 15 250 50 0 empty empty empty 17 7 0 10 -262144
-1 -1;
#X obj 58 13 inlet;
#X floatatom 58 47 5 0 0 0 - - -;
#X obj 102 159 ==;
#X obj 278 154 moses 3;
#X obj 317 180 - 2;
#X obj 22 340 tabplay~ s0g0l;
#X obj 135 340 tabplay~ s0g0r;
#X floatatom 175 127 5 0 0 0 - - -;
#X floatatom 278 126 5 0 0 0 - - -;
#X text 211 126 goop no.;
#X text 330 154 only use velocities of 3 or higher;
#X text 345 179 subtract to make velocities start at 1;
#X obj 295 209 / 20;
#X text 329 209 volume normalization;
#X text 83 320 play in stereo;
#X obj 607 44 pack f f;
#X obj 607 75 route 0 1 2 3 4 5 6 7 8 9;
#X symbolatom 528 341 10 0 0 0 - - -;
#X obj 739 102 makefilename s9g%d;
#X obj 724 124 makefilename s8g%d;
#X obj 709 147 makefilename s7g%d;
#X obj 695 168 makefilename s6g%d;
#X obj 607 305 makefilename s0g%d;
#X obj 621 283 makefilename s1g%d;
#X obj 636 260 makefilename s2g%d;
#X obj 651 237 makefilename s3g%d;
#X obj 680 192 makefilename s5g%d;
#X obj 665 213 makefilename s4g%d;
#X obj 482 371 makefilename %sl;
#X obj 600 371 makefilename %sr;
#X msg 482 400 set \$1;
#X msg 600 399 set \$1;
#X text -25 -16 unique goop number for each instance of goop subpatch
;
#X text 388 12 <- get teensy input ->;
#X obj 177 456 outlet~;
#X obj 293 457 outlet~;
#X connect 0 0 29 0;
#X connect 1 0 8 0;
#X connect 2 0 3 0;
#X connect 2 0 4 0;
#X connect 3 0 21 0;
#X connect 4 0 22 0;
#X connect 7 0 8 1;
#X connect 7 0 12 0;
#X connect 8 0 9 0;
#X connect 9 0 10 1;
#X connect 9 0 11 1;
#X connect 10 0 48 0;
#X connect 11 0 49 0;
#X connect 12 0 13 0;
#X connect 13 0 19 0;
#X connect 13 0 20 0;
#X connect 14 0 15 0;
#X connect 15 0 16 1;
#X connect 15 0 29 1;
#X connect 16 0 7 0;
#X connect 17 1 18 0;
#X connect 18 0 26 0;
#X connect 19 0 10 0;
#X connect 20 0 11 0;
#X connect 21 0 16 0;
#X connect 22 0 17 0;
#X connect 26 0 1 0;
#X connect 29 0 30 0;
#X connect 30 0 36 0;
#X connect 30 1 37 0;
#X connect 30 2 38 0;
#X connect 30 3 39 0;
#X connect 30 4 41 0;
#X connect 30 5 40 0;
#X connect 30 6 35 0;
#X connect 30 7 34 0;
#X connect 30 8 33 0;
#X connect 30 9 32 0;
#X connect 31 0 42 0;
#X connect 31 0 43 0;
#X connect 32 0 31 0;
#X connect 33 0 31 0;
#X connect 34 0 31 0;
#X connect 35 0 31 0;
#X connect 36 0 31 0;
#X connect 37 0 31 0;
#X connect 38 0 31 0;
#X connect 39 0 31 0;
#X connect 40 0 31 0;
#X connect 41 0 31 0;
#X connect 42 0 44 0;
#X connect 43 0 45 0;
#X connect 44 0 19 0;
#X connect 45 0 20 0;
#X restore 146 458 pd goop;
#X obj 146 400 loadbang;
#N canvas 520 164 1114 549 goop 1;
#X obj 607 12 r scene;
#X floatatom 295 235 5 0 0 0 - - -;
#X obj 264 13 r goopdata;
#X obj 175 100 div 8;
#X obj 278 99 mod 8;
#X text 53 177 check if correct goop;
#X text 313 125 velocity;
#X floatatom 102 200 5 0 0 0 - - -;
#X obj 295 260 spigot;
#X floatatom 295 289 5 0 0 0 - - -;
#X obj 177 428 *~;
#X obj 294 428 *~;
#X obj 102 250 sel 1;
#X obj 102 277 bng 15 250 50 0 empty empty empty 17 7 0 10 -262144
-1 -1;
#X obj 58 13 inlet;
#X floatatom 58 47 5 0 0 0 - - -;
#X obj 102 159 ==;
#X obj 278 154 moses 3;
#X obj 317 180 - 2;
#X obj 22 340 tabplay~ s0g0l;
#X obj 135 340 tabplay~ s0g0r;
#X floatatom 175 127 5 0 0 0 - - -;
#X floatatom 278 126 5 0 0 0 - - -;
#X text 211 126 goop no.;
#X text 330 154 only use velocities of 3 or higher;
#X text 345 179 subtract to make velocities start at 1;
#X obj 295 209 / 20;
#X text 329 209 volume normalization;
#X text 83 320 play in stereo;
#X obj 607 44 pack f f;
#X obj 607 75 route 0 1 2 3 4 5 6 7 8 9;
#X symbolatom 528 341 10 0 0 0 - - -;
#X obj 739 102 makefilename s9g%d;
#X obj 724 124 makefilename s8g%d;
#X obj 709 147 makefilename s7g%d;
#X obj 695 168 makefilename s6g%d;
#X obj 607 305 makefilename s0g%d;
#X obj 621 283 makefilename s1g%d;
#X obj 636 260 makefilename s2g%d;
#X obj 651 237 makefilename s3g%d;
#X obj 680 192 makefilename s5g%d;
#X obj 665 213 makefilename s4g%d;
#X obj 482 371 makefilename %sl;
#X obj 600 371 makefilename %sr;
#X msg 482 400 set \$1;
#X msg 600 399 set \$1;
#X text -25 -16 unique goop number for each instance of goop subpatch
;
#X text 388 12 <- get teensy input ->;
#X obj 177 456 outlet~;
#X obj 293 457 outlet~;
#X connect 0 0 29 0;
#X connect 1 0 8 0;
#X connect 2 0 3 0;
#X connect 2 0 4 0;
#X connect 3 0 21 0;
#X connect 4 0 22 0;
#X connect 7 0 8 1;
#X connect 7 0 12 0;
#X connect 8 0 9 0;
#X connect 9 0 10 1;
#X connect 9 0 11 1;
#X connect 10 0 48 0;
#X connect 11 0 49 0;
#X connect 12 0 13 0;
#X connect 13 0 19 0;
#X connect 13 0 20 0;
#X connect 14 0 15 0;
#X connect 15 0 16 1;
#X connect 15 0 29 1;
#X connect 16 0 7 0;
#X connect 17 1 18 0;
#X connect 18 0 26 0;
#X connect 19 0 10 0;
#X connect 20 0 11 0;
#X connect 21 0 16 0;
#X connect 22 0 17 0;
#X connect 26 0 1 0;
#X connect 29 0 30 0;
#X connect 30 0 36 0;
#X connect 30 1 37 0;
#X connect 30 2 38 0;
#X connect 30 3 39 0;
#X connect 30 4 41 0;
#X connect 30 5 40 0;
#X connect 30 6 35 0;
#X connect 30 7 34 0;
#X connect 30 8 33 0;
#X connect 30 9 32 0;
#X connect 31 0 42 0;
#X connect 31 0 43 0;
#X connect 32 0 31 0;
#X connect 33 0 31 0;
#X connect 34 0 31 0;
#X connect 35 0 31 0;
#X connect 36 0 31 0;
#X connect 37 0 31 0;
#X connect 38 0 31 0;
#X connect 39 0 31 0;
#X connect 40 0 31 0;
#X connect 41 0 31 0;
#X connect 42 0 44 0;
#X connect 43 0 45 0;
#X connect 44 0 19 0;
#X connect 45 0 20 0;
#X restore 206 459 pd goop;
#X obj 206 401 loadbang;
#X msg 85 430 1;
#X msg 146 430 2;
#X msg 206 431 3;
#X obj 186 265 loadbang;
#X obj 186 290 del 1000;
#X obj 22 -8 loadbang;
#X text 369 29 address for raspberry pi \, click to open port;
#X text 82 58 click to close port;
#N canvas 520 164 1114 549 goop 0;
#X obj 607 12 r scene;
#X floatatom 295 235 5 0 0 0 - - -;
#X obj 264 13 r goopdata;
#X obj 175 100 div 8;
#X obj 278 99 mod 8;
#X text 53 177 check if correct goop;
#X text 313 125 velocity;
#X floatatom 102 200 5 0 0 0 - - -;
#X obj 295 260 spigot;
#X floatatom 295 289 5 0 0 0 - - -;
#X obj 177 428 *~;
#X obj 294 428 *~;
#X obj 102 250 sel 1;
#X obj 102 277 bng 15 250 50 0 empty empty empty 17 7 0 10 -262144
-1 -1;
#X obj 58 13 inlet;
#X floatatom 58 47 5 0 0 0 - - -;
#X obj 102 159 ==;
#X obj 278 154 moses 3;
#X obj 317 180 - 2;
#X obj 22 340 tabplay~ s0g0l;
#X obj 135 340 tabplay~ s0g0r;
#X floatatom 175 127 5 0 0 0 - - -;
#X floatatom 278 126 5 0 0 0 - - -;
#X text 211 126 goop no.;
#X text 330 154 only use velocities of 3 or higher;
#X text 345 179 subtract to make velocities start at 1;
#X obj 295 209 / 20;
#X text 329 209 volume normalization;
#X text 83 320 play in stereo;
#X obj 607 44 pack f f;
#X obj 607 75 route 0 1 2 3 4 5 6 7 8 9;
#X symbolatom 528 341 10 0 0 0 - - -;
#X obj 739 102 makefilename s9g%d;
#X obj 724 124 makefilename s8g%d;
#X obj 709 147 makefilename s7g%d;
#X obj 695 168 makefilename s6g%d;
#X obj 607 305 makefilename s0g%d;
#X obj 621 283 makefilename s1g%d;
#X obj 636 260 makefilename s2g%d;
#X obj 651 237 makefilename s3g%d;
#X obj 680 192 makefilename s5g%d;
#X obj 665 213 makefilename s4g%d;
#X obj 482 371 makefilename %sl;
#X obj 600 371 makefilename %sr;
#X msg 482 400 set \$1;
#X msg 600 399 set \$1;
#X text -25 -16 unique goop number for each instance of goop subpatch
;
#X text 388 12 <- get teensy input ->;
#X obj 177 456 outlet~;
#X obj 293 457 outlet~;
#X connect 0 0 29 0;
#X connect 1 0 8 0;
#X connect 2 0 3 0;
#X connect 2 0 4 0;
#X connect 3 0 21 0;
#X connect 4 0 22 0;
#X connect 7 0 8 1;
#X connect 7 0 12 0;
#X connect 8 0 9 0;
#X connect 9 0 10 1;
#X connect 9 0 11 1;
#X connect 10 0 48 0;
#X connect 11 0 49 0;
#X connect 12 0 13 0;
#X connect 13 0 19 0;
#X connect 13 0 20 0;
#X connect 14 0 15 0;
#X connect 15 0 16 1;
#X connect 15 0 29 1;
#X connect 16 0 7 0;
#X connect 17 1 18 0;
#X connect 18 0 26 0;
#X connect 19 0 10 0;
#X connect 20 0 11 0;
#X connect 21 0 16 0;
#X connect 22 0 17 0;
#X connect 26 0 1 0;
#X connect 29 0 30 0;
#X connect 30 0 36 0;
#X connect 30 1 37 0;
#X connect 30 2 38 0;
#X connect 30 3 39 0;
#X connect 30 4 41 0;
#X connect 30 5 40 0;
#X connect 30 6 35 0;
#X connect 30 7 34 0;
#X connect 30 8 33 0;
#X connect 30 9 32 0;
#X connect 31 0 42 0;
#X connect 31 0 43 0;
#X connect 32 0 31 0;
#X connect 33 0 31 0;
#X connect 34 0 31 0;
#X connect 35 0 31 0;
#X connect 36 0 31 0;
#X connect 37 0 31 0;
#X connect 38 0 31 0;
#X connect 39 0 31 0;
#X connect 40 0 31 0;
#X connect 41 0 31 0;
#X connect 42 0 44 0;
#X connect 43 0 45 0;
#X connect 44 0 19 0;
#X connect 45 0 20 0;
#X restore 269 460 pd goop;
#X obj 269 402 loadbang;
#N canvas 520 164 1114 549 goop 0;
#X obj 607 12 r scene;
#X floatatom 295 235 5 0 0 0 - - -;
#X obj 264 13 r goopdata;
#X obj 175 100 div 8;
#X obj 278 99 mod 8;
#X text 53 177 check if correct goop;
#X text 313 125 velocity;
#X floatatom 102 200 5 0 0 0 - - -;
#X obj 295 260 spigot;
#X floatatom 295 289 5 0 0 0 - - -;
#X obj 177 428 *~;
#X obj 294 428 *~;
#X obj 102 250 sel 1;
#X obj 102 277 bng 15 250 50 0 empty empty empty 17 7 0 10 -262144
-1 -1;
#X obj 58 13 inlet;
#X floatatom 58 47 5 0 0 0 - - -;
#X obj 102 159 ==;
#X obj 278 154 moses 3;
#X obj 317 180 - 2;
#X obj 22 340 tabplay~ s0g0l;
#X obj 135 340 tabplay~ s0g0r;
#X floatatom 175 127 5 0 0 0 - - -;
#X floatatom 278 126 5 0 0 0 - - -;
#X text 211 126 goop no.;
#X text 330 154 only use velocities of 3 or higher;
#X text 345 179 subtract to make velocities start at 1;
#X obj 295 209 / 20;
#X text 329 209 volume normalization;
#X text 83 320 play in stereo;
#X obj 607 44 pack f f;
#X obj 607 75 route 0 1 2 3 4 5 6 7 8 9;
#X symbolatom 528 341 10 0 0 0 - - -;
#X obj 739 102 makefilename s9g%d;
#X obj 724 124 makefilename s8g%d;
#X obj 709 147 makefilename s7g%d;
#X obj 695 168 makefilename s6g%d;
#X obj 607 305 makefilename s0g%d;
#X obj 621 283 makefilename s1g%d;
#X obj 636 260 makefilename s2g%d;
#X obj 651 237 makefilename s3g%d;
#X obj 680 192 makefilename s5g%d;
#X obj 665 213 makefilename s4g%d;
#X obj 482 371 makefilename %sl;
#X obj 600 371 makefilename %sr;
#X msg 482 400 set \$1;
#X msg 600 399 set \$1;
#X text -25 -16 unique goop number for each instance of goop subpatch
;
#X text 388 12 <- get teensy input ->;
#X obj 177 456 outlet~;
#X obj 293 457 outlet~;
#X connect 0 0 29 0;
#X connect 1 0 8 0;
#X connect 2 0 3 0;
#X connect 2 0 4 0;
#X connect 3 0 21 0;
#X connect 4 0 22 0;
#X connect 7 0 8 1;
#X connect 7 0 12 0;
#X connect 8 0 9 0;
#X connect 9 0 10 1;
#X connect 9 0 11 1;
#X connect 10 0 48 0;
#X connect 11 0 49 0;
#X connect 12 0 13 0;
#X connect 13 0 19 0;
#X connect 13 0 20 0;
#X connect 14 0 15 0;
#X connect 15 0 16 1;
#X connect 15 0 29 1;
#X connect 16 0 7 0;
#X connect 17 1 18 0;
#X connect 18 0 26 0;
#X connect 19 0 10 0;
#X connect 20 0 11 0;
#X connect 21 0 16 0;
#X connect 22 0 17 0;
#X connect 26 0 1 0;
#X connect 29 0 30 0;
#X connect 30 0 36 0;
#X connect 30 1 37 0;
#X connect 30 2 38 0;
#X connect 30 3 39 0;
#X connect 30 4 41 0;
#X connect 30 5 40 0;
#X connect 30 6 35 0;
#X connect 30 7 34 0;
#X connect 30 8 33 0;
#X connect 30 9 32 0;
#X connect 31 0 42 0;
#X connect 31 0 43 0;
#X connect 32 0 31 0;
#X connect 33 0 31 0;
#X connect 34 0 31 0;
#X connect 35 0 31 0;
#X connect 36 0 31 0;
#X connect 37 0 31 0;
#X connect 38 0 31 0;
#X connect 39 0 31 0;
#X connect 40 0 31 0;
#X connect 41 0 31 0;
#X connect 42 0 44 0;
#X connect 43 0 45 0;
#X connect 44 0 19 0;
#X connect 45 0 20 0;
#X restore 334 460 pd goop;
#X obj 334 402 loadbang;
#N canvas 520 164 1114 549 goop 0;
#X obj 607 12 r scene;
#X floatatom 295 235 5 0 0 0 - - -;
#X obj 264 13 r goopdata;
#X obj 175 100 div 8;
#X obj 278 99 mod 8;
#X text 53 177 check if correct goop;
#X text 313 125 velocity;
#X floatatom 102 200 5 0 0 0 - - -;
#X obj 295 260 spigot;
#X floatatom 295 289 5 0 0 0 - - -;
#X obj 177 428 *~;
#X obj 294 428 *~;
#X obj 102 250 sel 1;
#X obj 102 277 bng 15 250 50 0 empty empty empty 17 7 0 10 -262144
-1 -1;
#X obj 58 13 inlet;
#X floatatom 58 47 5 0 0 0 - - -;
#X obj 102 159 ==;
#X obj 278 154 moses 3;
#X obj 317 180 - 2;
#X obj 22 340 tabplay~ s0g0l;
#X obj 135 340 tabplay~ s0g0r;
#X floatatom 175 127 5 0 0 0 - - -;
#X floatatom 278 126 5 0 0 0 - - -;
#X text 211 126 goop no.;
#X text 330 154 only use velocities of 3 or higher;
#X text 345 179 subtract to make velocities start at 1;
#X obj 295 209 / 20;
#X text 329 209 volume normalization;
#X text 83 320 play in stereo;
#X obj 607 44 pack f f;
#X obj 607 75 route 0 1 2 3 4 5 6 7 8 9;
#X symbolatom 528 341 10 0 0 0 - - -;
#X obj 739 102 makefilename s9g%d;
#X obj 724 124 makefilename s8g%d;
#X obj 709 147 makefilename s7g%d;
#X obj 695 168 makefilename s6g%d;
#X obj 607 305 makefilename s0g%d;
#X obj 621 283 makefilename s1g%d;
#X obj 636 260 makefilename s2g%d;
#X obj 651 237 makefilename s3g%d;
#X obj 680 192 makefilename s5g%d;
#X obj 665 213 makefilename s4g%d;
#X obj 482 371 makefilename %sl;
#X obj 600 371 makefilename %sr;
#X msg 482 400 set \$1;
#X msg 600 399 set \$1;
#X text -25 -16 unique goop number for each instance of goop subpatch
;
#X text 388 12 <- get teensy input ->;
#X obj 177 456 outlet~;
#X obj 293 457 outlet~;
#X connect 0 0 29 0;
#X connect 1 0 8 0;
#X connect 2 0 3 0;
#X connect 2 0 4 0;
#X connect 3 0 21 0;
#X connect 4 0 22 0;
#X connect 7 0 8 1;
#X connect 7 0 12 0;
#X connect 8 0 9 0;
#X connect 9 0 10 1;
#X connect 9 0 11 1;
#X connect 10 0 48 0;
#X connect 11 0 49 0;
#X connect 12 0 13 0;
#X connect 13 0 19 0;
#X connect 13 0 20 0;
#X connect 14 0 15 0;
#X connect 15 0 16 1;
#X connect 15 0 29 1;
#X connect 16 0 7 0;
#X connect 17 1 18 0;
#X connect 18 0 26 0;
#X connect 19 0 10 0;
#X connect 20 0 11 0;
#X connect 21 0 16 0;
#X connect 22 0 17 0;
#X connect 26 0 1 0;
#X connect 29 0 30 0;
#X connect 30 0 36 0;
#X connect 30 1 37 0;
#X connect 30 2 38 0;
#X connect 30 3 39 0;
#X connect 30 4 41 0;
#X connect 30 5 40 0;
#X connect 30 6 35 0;
#X connect 30 7 34 0;
#X connect 30 8 33 0;
#X connect 30 9 32 0;
#X connect 31 0 42 0;
#X connect 31 0 43 0;
#X connect 32 0 31 0;
#X connect 33 0 31 0;
#X connect 34 0 31 0;
#X connect 35 0 31 0;
#X connect 36 0 31 0;
#X connect 37 0 31 0;
#X connect 38 0 31 0;
#X connect 39 0 31 0;
#X connect 40 0 31 0;
#X connect 41 0 31 0;
#X connect 42 0 44 0;
#X connect 43 0 45 0;
#X connect 44 0 19 0;
#X connect 45 0 20 0;
#X restore 398 460 pd goop;
#X obj 398 402 loadbang;
#N canvas 520 164 1114 549 goop 0;
#X obj 607 12 r scene;
#X floatatom 295 235 5 0 0 0 - - -;
#X obj 264 13 r goopdata;
#X obj 175 100 div 8;
#X obj 278 99 mod 8;
#X text 53 177 check if correct goop;
#X text 313 125 velocity;
#X floatatom 102 200 5 0 0 0 - - -;
#X obj 295 260 spigot;
#X floatatom 295 289 5 0 0 0 - - -;
#X obj 177 428 *~;
#X obj 294 428 *~;
#X obj 102 250 sel 1;
#X obj 102 277 bng 15 250 50 0 empty empty empty 17 7 0 10 -262144
-1 -1;
#X obj 58 13 inlet;
#X floatatom 58 47 5 0 0 0 - - -;
#X obj 102 159 ==;
#X obj 278 154 moses 3;
#X obj 317 180 - 2;
#X obj 22 340 tabplay~ s0g0l;
#X obj 135 340 tabplay~ s0g0r;
#X floatatom 175 127 5 0 0 0 - - -;
#X floatatom 278 126 5 0 0 0 - - -;
#X text 211 126 goop no.;
#X text 330 154 only use velocities of 3 or higher;
#X text 345 179 subtract to make velocities start at 1;
#X obj 295 209 / 20;
#X text 329 209 volume normalization;
#X text 83 320 play in stereo;
#X obj 607 44 pack f f;
#X obj 607 75 route 0 1 2 3 4 5 6 7 8 9;
#X symbolatom 528 341 10 0 0 0 - - -;
#X obj 739 102 makefilename s9g%d;
#X obj 724 124 makefilename s8g%d;
#X obj 709 147 makefilename s7g%d;
#X obj 695 168 makefilename s6g%d;
#X obj 607 305 makefilename s0g%d;
#X obj 621 283 makefilename s1g%d;
#X obj 636 260 makefilename s2g%d;
#X obj 651 237 makefilename s3g%d;
#X obj 680 192 makefilename s5g%d;
#X obj 665 213 makefilename s4g%d;
#X obj 482 371 makefilename %sl;
#X obj 600 371 makefilename %sr;
#X msg 482 400 set \$1;
#X msg 600 399 set \$1;
#X text -25 -16 unique goop number for each instance of goop subpatch
;
#X text 388 12 <- get teensy input ->;
#X obj 177 456 outlet~;
#X obj 293 457 outlet~;
#X connect 0 0 29 0;
#X connect 1 0 8 0;
#X connect 2 0 3 0;
#X connect 2 0 4 0;
#X connect 3 0 21 0;
#X connect 4 0 22 0;
#X connect 7 0 8 1;
#X connect 7 0 12 0;
#X connect 8 0 9 0;
#X connect 9 0 10 1;
#X connect 9 0 11 1;
#X connect 10 0 48 0;
#X connect 11 0 49 0;
#X connect 12 0 13 0;
#X connect 13 0 19 0;
#X connect 13 0 20 0;
#X connect 14 0 15 0;
#X connect 15 0 16 1;
#X connect 15 0 29 1;
#X connect 16 0 7 0;
#X connect 17 1 18 0;
#X connect 18 0 26 0;
#X connect 19 0 10 0;
#X connect 20 0 11 0;
#X connect 21 0 16 0;
#X connect 22 0 17 0;
#X connect 26 0 1 0;
#X connect 29 0 30 0;
#X connect 30 0 36 0;
#X connect 30 1 37 0;
#X connect 30 2 38 0;
#X connect 30 3 39 0;
#X connect 30 4 41 0;
#X connect 30 5 40 0;
#X connect 30 6 35 0;
#X connect 30 7 34 0;
#X connect 30 8 33 0;
#X connect 30 9 32 0;
#X connect 31 0 42 0;
#X connect 31 0 43 0;
#X connect 32 0 31 0;
#X connect 33 0 31 0;
#X connect 34 0 31 0;
#X connect 35 0 31 0;
#X connect 36 0 31 0;
#X connect 37 0 31 0;
#X connect 38 0 31 0;
#X connect 39 0 31 0;
#X connect 40 0 31 0;
#X connect 41 0 31 0;
#X connect 42 0 44 0;
#X connect 43 0 45 0;
#X connect 44 0 19 0;
#X connect 45 0 20 0;
#X restore 460 460 pd goop;
#X obj 460 402 loadbang;
#N canvas 520 164 1114 549 goop 0;
#X obj 607 12 r scene;
#X floatatom 295 235 5 0 0 0 - - -;
#X obj 264 13 r goopdata;
#X obj 175 100 div 8;
#X obj 278 99 mod 8;
#X text 53 177 check if correct goop;
#X text 313 125 velocity;
#X floatatom 102 200 5 0 0 0 - - -;
#X obj 295 260 spigot;
#X floatatom 295 289 5 0 0 0 - - -;
#X obj 177 428 *~;
#X obj 294 428 *~;
#X obj 102 250 sel 1;
#X obj 102 277 bng 15 250 50 0 empty empty empty 17 7 0 10 -262144
-1 -1;
#X obj 58 13 inlet;
#X floatatom 58 47 5 0 0 0 - - -;
#X obj 102 159 ==;
#X obj 278 154 moses 3;
#X obj 317 180 - 2;
#X obj 22 340 tabplay~ s0g0l;
#X obj 135 340 tabplay~ s0g0r;
#X floatatom 175 127 5 0 0 0 - - -;
#X floatatom 278 126 5 0 0 0 - - -;
#X text 211 126 goop no.;
#X text 330 154 only use velocities of 3 or higher;
#X text 345 179 subtract to make velocities start at 1;
#X obj 295 209 / 20;
#X text 329 209 volume normalization;
#X text 83 320 play in stereo;
#X obj 607 44 pack f f;
#X obj 607 75 route 0 1 2 3 4 5 6 7 8 9;
#X symbolatom 528 341 10 0 0 0 - - -;
#X obj 739 102 makefilename s9g%d;
#X obj 724 124 makefilename s8g%d;
#X obj 709 147 makefilename s7g%d;
#X obj 695 168 makefilename s6g%d;
#X obj 607 305 makefilename s0g%d;
#X obj 621 283 makefilename s1g%d;
#X obj 636 260 makefilename s2g%d;
#X obj 651 237 makefilename s3g%d;
#X obj 680 192 makefilename s5g%d;
#X obj 665 213 makefilename s4g%d;
#X obj 482 371 makefilename %sl;
#X obj 600 371 makefilename %sr;
#X msg 482 400 set \$1;
#X msg 600 399 set \$1;
#X text -25 -16 unique goop number for each instance of goop subpatch
;
#X text 388 12 <- get teensy input ->;
#X obj 177 456 outlet~;
#X obj 293 457 outlet~;
#X connect 0 0 29 0;
#X connect 1 0 8 0;
#X connect 2 0 3 0;
#X connect 2 0 4 0;
#X connect 3 0 21 0;
#X connect 4 0 22 0;
#X connect 7 0 8 1;
#X connect 7 0 12 0;
#X connect 8 0 9 0;
#X connect 9 0 10 1;
#X connect 9 0 11 1;
#X connect 10 0 48 0;
#X connect 11 0 49 0;
#X connect 12 0 13 0;
#X connect 13 0 19 0;
#X connect 13 0 20 0;
#X connect 14 0 15 0;
#X connect 15 0 16 1;
#X connect 15 0 29 1;
#X connect 16 0 7 0;
#X connect 17 1 18 0;
#X connect 18 0 26 0;
#X connect 19 0 10 0;
#X connect 20 0 11 0;
#X connect 21 0 16 0;
#X connect 22 0 17 0;
#X connect 26 0 1 0;
#X connect 29 0 30 0;
#X connect 30 0 36 0;
#X connect 30 1 37 0;
#X connect 30 2 38 0;
#X connect 30 3 39 0;
#X connect 30 4 41 0;
#X connect 30 5 40 0;
#X connect 30 6 35 0;
#X connect 30 7 34 0;
#X connect 30 8 33 0;
#X connect 30 9 32 0;
#X connect 31 0 42 0;
#X connect 31 0 43 0;
#X connect 32 0 31 0;
#X connect 33 0 31 0;
#X connect 34 0 31 0;
#X connect 35 0 31 0;
#X connect 36 0 31 0;
#X connect 37 0 31 0;
#X connect 38 0 31 0;
#X connect 39 0 31 0;
#X connect 40 0 31 0;
#X connect 41 0 31 0;
#X connect 42 0 44 0;
#X connect 43 0 45 0;
#X connect 44 0 19 0;
#X connect 45 0 20 0;
#X restore 523 460 pd goop;
#X obj 523 402 loadbang;
#N canvas 520 164 1114 549 goop 0;
#X obj 607 12 r scene;
#X floatatom 295 235 5 0 0 0 - - -;
#X obj 264 13 r goopdata;
#X obj 175 100 div 8;
#X obj 278 99 mod 8;
#X text 53 177 check if correct goop;
#X text 313 125 velocity;
#X floatatom 102 200 5 0 0 0 - - -;
#X obj 295 260 spigot;
#X floatatom 295 289 5 0 0 0 - - -;
#X obj 177 428 *~;
#X obj 294 428 *~;
#X obj 102 250 sel 1;
#X obj 102 277 bng 15 250 50 0 empty empty empty 17 7 0 10 -262144
-1 -1;
#X obj 58 13 inlet;
#X floatatom 58 47 5 0 0 0 - - -;
#X obj 102 159 ==;
#X obj 278 154 moses 3;
#X obj 317 180 - 2;
#X obj 22 340 tabplay~ s0g0l;
#X obj 135 340 tabplay~ s0g0r;
#X floatatom 175 127 5 0 0 0 - - -;
#X floatatom 278 126 5 0 0 0 - - -;
#X text 211 126 goop no.;
#X text 330 154 only use velocities of 3 or higher;
#X text 345 179 subtract to make velocities start at 1;
#X obj 295 209 / 20;
#X text 329 209 volume normalization;
#X text 83 320 play in stereo;
#X obj 607 44 pack f f;
#X obj 607 75 route 0 1 2 3 4 5 6 7 8 9;
#X symbolatom 528 341 10 0 0 0 - - -;
#X obj 739 102 makefilename s9g%d;
#X obj 724 124 makefilename s8g%d;
#X obj 709 147 makefilename s7g%d;
#X obj 695 168 makefilename s6g%d;
#X obj 607 305 makefilename s0g%d;
#X obj 621 283 makefilename s1g%d;
#X obj 636 260 makefilename s2g%d;
#X obj 651 237 makefilename s3g%d;
#X obj 680 192 makefilename s5g%d;
#X obj 665 213 makefilename s4g%d;
#X obj 482 371 makefilename %sl;
#X obj 600 371 makefilename %sr;
#X msg 482 400 set \$1;
#X msg 600 399 set \$1;
#X text -25 -16 unique goop number for each instance of goop subpatch
;
#X text 388 12 <- get teensy input ->;
#X obj 177 456 outlet~;
#X obj 293 457 outlet~;
#X connect 0 0 29 0;
#X connect 1 0 8 0;
#X connect 2 0 3 0;
#X connect 2 0 4 0;
#X connect 3 0 21 0;
#X connect 4 0 22 0;
#X connect 7 0 8 1;
#X connect 7 0 12 0;
#X connect 8 0 9 0;
#X connect 9 0 10 1;
#X connect 9 0 11 1;
#X connect 10 0 48 0;
#X connect 11 0 49 0;
#X connect 12 0 13 0;
#X connect 13 0 19 0;
#X connect 13 0 20 0;
#X connect 14 0 15 0;
#X connect 15 0 16 1;
#X connect 15 0 29 1;
#X connect 16 0 7 0;
#X connect 17 1 18 0;
#X connect 18 0 26 0;
#X connect 19 0 10 0;
#X connect 20 0 11 0;
#X connect 21 0 16 0;
#X connect 22 0 17 0;
#X connect 26 0 1 0;
#X connect 29 0 30 0;
#X connect 30 0 36 0;
#X connect 30 1 37 0;
#X connect 30 2 38 0;
#X connect 30 3 39 0;
#X connect 30 4 41 0;
#X connect 30 5 40 0;
#X connect 30 6 35 0;
#X connect 30 7 34 0;
#X connect 30 8 33 0;
#X connect 30 9 32 0;
#X connect 31 0 42 0;
#X connect 31 0 43 0;
#X connect 32 0 31 0;
#X connect 33 0 31 0;
#X connect 34 0 31 0;
#X connect 35 0 31 0;
#X connect 36 0 31 0;
#X connect 37 0 31 0;
#X connect 38 0 31 0;
#X connect 39 0 31 0;
#X connect 40 0 31 0;
#X connect 41 0 31 0;
#X connect 42 0 44 0;
#X connect 43 0 45 0;
#X connect 44 0 19 0;
#X connect 45 0 20 0;
#X restore 584 460 pd goop;
#X obj 584 402 loadbang;
#N canvas 520 164 1114 549 goop 0;
#X obj 607 12 r scene;
#X floatatom 295 235 5 0 0 0 - - -;
#X obj 264 13 r goopdata;
#X obj 175 100 div 8;
#X obj 278 99 mod 8;
#X text 53 177 check if correct goop;
#X text 313 125 velocity;
#X floatatom 102 200 5 0 0 0 - - -;
#X obj 295 260 spigot;
#X floatatom 295 289 5 0 0 0 - - -;
#X obj 177 428 *~;
#X obj 294 428 *~;
#X obj 102 250 sel 1;
#X obj 102 277 bng 15 250 50 0 empty empty empty 17 7 0 10 -262144
-1 -1;
#X obj 58 13 inlet;
#X floatatom 58 47 5 0 0 0 - - -;
#X obj 102 159 ==;
#X obj 278 154 moses 3;
#X obj 317 180 - 2;
#X obj 22 340 tabplay~ s0g0l;
#X obj 135 340 tabplay~ s0g0r;
#X floatatom 175 127 5 0 0 0 - - -;
#X floatatom 278 126 5 0 0 0 - - -;
#X text 211 126 goop no.;
#X text 330 154 only use velocities of 3 or higher;
#X text 345 179 subtract to make velocities start at 1;
#X obj 295 209 / 20;
#X text 329 209 volume normalization;
#X text 83 320 play in stereo;
#X obj 607 44 pack f f;
#X obj 607 75 route 0 1 2 3 4 5 6 7 8 9;
#X symbolatom 528 341 10 0 0 0 - - -;
#X obj 739 102 makefilename s9g%d;
#X obj 724 124 makefilename s8g%d;
#X obj 709 147 makefilename s7g%d;
#X obj 695 168 makefilename s6g%d;
#X obj 607 305 makefilename s0g%d;
#X obj 621 283 makefilename s1g%d;
#X obj 636 260 makefilename s2g%d;
#X obj 651 237 makefilename s3g%d;
#X obj 680 192 makefilename s5g%d;
#X obj 665 213 makefilename s4g%d;
#X obj 482 371 makefilename %sl;
#X obj 600 371 makefilename %sr;
#X msg 482 400 set \$1;
#X msg 600 399 set \$1;
#X text -25 -16 unique goop number for each instance of goop subpatch
;
#X text 388 12 <- get teensy input ->;
#X obj 177 456 outlet~;
#X obj 293 457 outlet~;
#X connect 0 0 29 0;
#X connect 1 0 8 0;
#X connect 2 0 3 0;
#X connect 2 0 4 0;
#X connect 3 0 21 0;
#X connect 4 0 22 0;
#X connect 7 0 8 1;
#X connect 7 0 12 0;
#X connect 8 0 9 0;
#X connect 9 0 10 1;
#X connect 9 0 11 1;
#X connect 10 0 48 0;
#X connect 11 0 49 0;
#X connect 12 0 13 0;
#X connect 13 0 19 0;
#X connect 13 0 20 0;
#X connect 14 0 15 0;
#X connect 15 0 16 1;
#X connect 15 0 29 1;
#X connect 16 0 7 0;
#X connect 17 1 18 0;
#X connect 18 0 26 0;
#X connect 19 0 10 0;
#X connect 20 0 11 0;
#X connect 21 0 16 0;
#X connect 22 0 17 0;
#X connect 26 0 1 0;
#X connect 29 0 30 0;
#X connect 30 0 36 0;
#X connect 30 1 37 0;
#X connect 30 2 38 0;
#X connect 30 3 39 0;
#X connect 30 4 41 0;
#X connect 30 5 40 0;
#X connect 30 6 35 0;
#X connect 30 7 34 0;
#X connect 30 8 33 0;
#X connect 30 9 32 0;
#X connect 31 0 42 0;
#X connect 31 0 43 0;
#X connect 32 0 31 0;
#X connect 33 0 31 0;
#X connect 34 0 31 0;
#X connect 35 0 31 0;
#X connect 36 0 31 0;
#X connect 37 0 31 0;
#X connect 38 0 31 0;
#X connect 39 0 31 0;
#X connect 40 0 31 0;
#X connect 41 0 31 0;
#X connect 42 0 44 0;
#X connect 43 0 45 0;
#X connect 44 0 19 0;
#X connect 45 0 20 0;
#X restore 646 459 pd goop;
#X obj 646 401 loadbang;
#X msg 269 432 4;
#X msg 334 432 5;
#X msg 398 432 6;
#X msg 460 432 7;
#X msg 523 432 8;
#X msg 584 432 9;
#X msg 646 431 28;
#X obj 108 679 dac~ 1 2 3 4 5 6 7 8;
#X connect 0 0 3 0;
#X connect 1 0 0 0;
#X connect 2 0 0 0;
#X connect 3 0 4 0;
#X connect 4 0 8 0;
#X connect 4 1 5 0;
#X connect 5 0 6 0;
#X connect 6 0 15 0;
#X connect 10 0 11 0;
#X connect 15 0 16 0;
#X connect 16 0 17 0;
#X connect 17 0 7 0;
#X connect 18 0 7 0;
#X connect 23 0 61 0;
#X connect 23 0 61 2;
#X connect 23 1 61 1;
#X connect 23 1 61 3;
#X connect 24 0 25 0;
#X connect 25 0 23 0;
#X connect 26 0 61 0;
#X connect 26 0 61 2;
#X connect 26 1 61 1;
#X connect 26 1 61 3;
#X connect 27 0 32 0;
#X connect 28 0 61 0;
#X connect 28 0 61 2;
#X connect 28 1 61 1;
#X connect 28 1 61 3;
#X connect 29 0 33 0;
#X connect 30 0 61 0;
#X connect 30 0 61 2;
#X connect 30 1 61 1;
#X connect 30 1 61 3;
#X connect 31 0 34 0;
#X connect 32 0 26 0;
#X connect 33 0 28 0;
#X connect 34 0 30 0;
#X connect 35 0 36 0;
#X connect 36 0 18 0;
#X connect 37 0 2 0;
#X connect 40 0 61 0;
#X connect 40 0 61 2;
#X connect 40 1 61 1;
#X connect 40 1 61 3;
#X connect 41 0 54 0;
#X connect 42 0 61 0;
#X connect 42 0 61 2;
#X connect 42 1 61 1;
#X connect 42 1 61 3;
#X connect 43 0 55 0;
#X connect 44 0 61 0;
#X connect 44 0 61 2;
#X connect 44 1 61 1;
#X connect 44 1 61 3;
#X connect 45 0 56 0;
#X connect 46 0 61 0;
#X connect 46 0 61 2;
#X connect 46 1 61 1;
#X connect 46 1 61 3;
#X connect 47 0 57 0;
#X connect 48 0 61 0;
#X connect 48 0 61 2;
#X connect 48 1 61 1;
#X connect 48 1 61 3;
#X connect 49 0 58 0;
#X connect 50 0 61 2;
#X connect 50 0 61 0;
#X connect 50 1 61 3;
#X connect 50 1 61 1;
#X connect 51 0 59 0;
#X connect 52 0 61 0;
#X connect 52 0 61 2;
#X connect 52 1 61 1;
#X connect 52 1 61 3;
#X connect 53 0 60 0;
#X connect 54 0 40 0;
#X connect 55 0 42 0;
#X connect 56 0 44 0;
#X connect 57 0 46 0;
#X connect 58 0 48 0;
#X connect 59 0 50 0;
#X connect 60 0 52 0;
